<svg xmlns="http://www.w3.org/2000/svg" viewBox="0 0 960 640" role="img" aria-label="충청 차례상 예시">
  <defs>
    <linearGradient id="bg" x1="0" y1="0" x2="1" y2="1">
      <stop offset="0%" stop-color="#f7fbff"/>
      <stop offset="100%" stop-color="#e9f1ff"/>
    </linearGradient>
  </defs>

  <rect width="960" height="640" rx="32" fill="url(#bg)"/>
  <circle cx="110" cy="96" r="78" fill="#8ea3cb" opacity="0.16"/>
  <circle cx="852" cy="544" r="96" fill="#b7c7e5" opacity="0.16"/>

  <rect x="68" y="56" width="824" height="124" rx="18" fill="#ffffff" stroke="#cfdcf2" stroke-width="3"/>
  <text x="100" y="108" font-family="Arial, sans-serif" font-size="44" font-weight="700" fill="#20335a">충청 차례상 예시</text>
  <text x="100" y="144" font-family="Arial, sans-serif" font-size="23" fill="#47608d">순한 간, 정갈한 배치 중심</text>

  <ellipse cx="480" cy="384" rx="336" ry="168" fill="#ffffff" stroke="#ccd9ef" stroke-width="6"/>
  <ellipse cx="480" cy="384" rx="292" ry="132" fill="#f9fbff" stroke="#dbe5f6" stroke-width="3"/>

  <g>
    <circle cx="312" cy="354" r="64" fill="#dce7fb"/>
    <circle cx="480" cy="330" r="64" fill="#dce7fb"/>
    <circle cx="648" cy="354" r="64" fill="#dce7fb"/>

    <text x="312" y="362" text-anchor="middle" font-family="Arial, sans-serif" font-size="23" font-weight="700" fill="#2f436f">두부전</text>
    <text x="480" y="338" text-anchor="middle" font-family="Arial, sans-serif" font-size="23" font-weight="700" fill="#2f436f">쇠고기무국</text>
    <text x="648" y="362" text-anchor="middle" font-family="Arial, sans-serif" font-size="23" font-weight="700" fill="#2f436f">무나물</text>
  </g>

  <g>
    <rect x="236" y="452" width="152" height="56" rx="18" fill="#fff" stroke="#cfdcf2" stroke-width="2"/>
    <rect x="404" y="452" width="152" height="56" rx="18" fill="#fff" stroke="#cfdcf2" stroke-width="2"/>
    <rect x="572" y="452" width="152" height="56" rx="18" fill="#fff" stroke="#cfdcf2" stroke-width="2"/>

    <text x="312" y="487" text-anchor="middle" font-family="Arial, sans-serif" font-size="20" font-weight="700" fill="#4e6796">2열 서측</text>
    <text x="480" y="487" text-anchor="middle" font-family="Arial, sans-serif" font-size="20" font-weight="700" fill="#4e6796">3열 중앙</text>
    <text x="648" y="487" text-anchor="middle" font-family="Arial, sans-serif" font-size="20" font-weight="700" fill="#4e6796">4열 중앙</text>
  </g>
</svg>
