<svg xmlns="http://www.w3.org/2000/svg" viewBox="0 0 960 640" role="img" aria-label="Jeolla charye table sample">
  <defs>
    <linearGradient id="bg-jeolla" x1="0" y1="0" x2="1" y2="1">
      <stop offset="0%" stop-color="#fffaf7"/>
      <stop offset="100%" stop-color="#ffe9e4"/>
    </linearGradient>
    <linearGradient id="plate-jeolla" x1="0" y1="0" x2="1" y2="0">
      <stop offset="0%" stop-color="#c57b55"/>
      <stop offset="100%" stop-color="#efb58f"/>
    </linearGradient>
  </defs>

  <rect width="960" height="640" rx="32" fill="url(#bg-jeolla)"/>
  <circle cx="830" cy="94" r="90" fill="#c57b55" opacity="0.12"/>
  <circle cx="126" cy="564" r="98" fill="#efb58f" opacity="0.12"/>

  <rect x="70" y="56" width="820" height="120" rx="20" fill="#ffffff" stroke="#efcfca" stroke-width="3"/>
  <text x="104" y="108" font-family="Arial, sans-serif" font-size="42" font-weight="700" fill="#53231d">Jeolla</text>
  <text x="104" y="144" font-family="Arial, sans-serif" font-size="23" fill="#8b5a53">Rich variety and abundant side dishes</text>

  <ellipse cx="480" cy="390" rx="330" ry="164" fill="#fff" stroke="#e3c8c1" stroke-width="6"/>
  <ellipse cx="480" cy="390" rx="286" ry="130" fill="#fffaf9" stroke="#f2dcd7" stroke-width="3"/>

  <circle cx="320" cy="360" r="62" fill="url(#plate-jeolla)" opacity="0.25"/>
  <circle cx="480" cy="332" r="62" fill="url(#plate-jeolla)" opacity="0.25"/>
  <circle cx="640" cy="360" r="62" fill="url(#plate-jeolla)" opacity="0.25"/>

  <rect x="248" y="452" width="144" height="54" rx="18" fill="#fff" stroke="#efcfca" stroke-width="2"/>
  <rect x="408" y="452" width="144" height="54" rx="18" fill="#fff" stroke="#efcfca" stroke-width="2"/>
  <rect x="568" y="452" width="144" height="54" rx="18" fill="#fff" stroke="#efcfca" stroke-width="2"/>

  <text x="320" y="370" text-anchor="middle" font-family="Arial, sans-serif" font-size="22" font-weight="700" fill="#6e2a22">Hongeo Jeon</text>
  <text x="480" y="342" text-anchor="middle" font-family="Arial, sans-serif" font-size="22" font-weight="700" fill="#6e2a22">Pyo-go Jeon</text>
  <text x="640" y="370" text-anchor="middle" font-family="Arial, sans-serif" font-size="22" font-weight="700" fill="#6e2a22">Byeongeo</text>

  <text x="320" y="487" text-anchor="middle" font-family="Arial, sans-serif" font-size="18" font-weight="700" fill="#8d4a41">West</text>
  <text x="480" y="487" text-anchor="middle" font-family="Arial, sans-serif" font-size="18" font-weight="700" fill="#8d4a41">Center</text>
  <text x="640" y="487" text-anchor="middle" font-family="Arial, sans-serif" font-size="18" font-weight="700" fill="#8d4a41">East</text>
</svg>
